<?xml version="1.0" encoding="UTF-8"?>
<svg id="Ebene_1" data-name="Ebene 1" xmlns="http://www.w3.org/2000/svg" version="1.1" viewBox="0 0 115 175.11">
  <defs>
    <style>
      .cls-1 {
        fill: #1d1d1b;
      }

      .cls-1, .cls-2 {
        stroke-width: 0px;
      }

      .cls-2 {
        fill: #ec6608;
      }
    </style>
  </defs>
  <path class="cls-2" d="M62.04,175.03c-14,1.02-26.1-8.73-27.06-21.79-.93-13.03,1.81-35.74,21.64-53.02-1.16,20.4,27.5,27.86,29.06,49.36.92,13.03-9.65,24.43-23.63,25.45"/>
  <path class="cls-2" d="M112.72,126.35c-1.25,8.11-4.74,15.33-9.54,21.55,1.07-3.46,1.81-7.03,1.83-10.81-.01-35.8-46.48-52.26-42.12-85.86-34.87,25.75-42.09,62.95-42.11,84.67,0,7.87,2.53,15.19,6.79,21.41-13.94-10.56-21.89-27.33-19.16-45.08C12.52,85.38,28.57,40.46,76.71,13.91c-11.78,40.85,42.79,68.19,36,112.43"/>
  <path class="cls-1" d="M22.93,161.64c-.92,0-1.84-.4-2.46-1.18-1.1-1.38-26.85-34.27-18.98-76.46C7.44,52.12,30.92,24,71.27.43c1.41-.82,3.22-.43,4.16.9.94,1.34.7,3.17-.55,4.22-.52.45-13.11,11.99,1.58,41.38,3.69,7.38,8.48,15.17,13.55,23.42,16.81,27.34,35.85,58.33,17.45,82.77-1.04,1.39-3.02,1.67-4.4.62-1.39-1.04-1.67-3.02-.62-4.4,15.82-21.02-1.26-48.81-17.79-75.69-5.15-8.37-10.01-16.28-13.82-23.91-8.74-17.47-8.71-29.74-6.51-37.64C31.84,33.31,12.8,57.82,7.69,85.07.31,124.41,25.14,156.22,25.39,156.54c1.08,1.36.86,3.34-.5,4.42-.58.46-1.27.68-1.96.68"/>
  <path class="cls-1" d="M62.58,169.47c-6.48,0-11.48-2.09-11.8-2.23-.14-.06-.28-.13-.42-.22-11.83-7.32-18.43-16.76-19.62-28.05-2.71-25.71,23.84-51.46,24.97-52.55,1.25-1.2,3.24-1.16,4.44.1,1.2,1.25,1.16,3.24-.09,4.44-.26.25-25.46,24.73-23.06,47.36.97,9.18,6.5,16.98,16.44,23.2,1.4.53,10.44,3.69,18.37-.53,6.24-3.32,10.49-10.43,12.61-21.14.34-1.7,2-2.81,3.7-2.47,1.7.34,2.81,1.99,2.48,3.7-2.51,12.69-7.86,21.27-15.89,25.51-4.13,2.18-8.37,2.87-12.12,2.87"/>
</svg>