<?xml version="1.0" encoding="UTF-8"?>
<svg id="Ebene_1" data-name="Ebene 1" xmlns="http://www.w3.org/2000/svg" version="1.1" viewBox="0 0 173.65 174.28">
  <defs>
    <style>
      .cls-1 {
        fill: #1d1d1b;
      }

      .cls-1, .cls-2 {
        stroke-width: 0px;
      }

      .cls-2 {
        fill: #ecc625;
      }
    </style>
  </defs>
  <path class="cls-2" d="M157.4,100.12c0,28.63-23.2,51.82-51.82,51.82s-51.81-23.19-51.81-51.82,23.2-51.81,51.81-51.81,51.82,23.2,51.82,51.81"/>
  <path class="cls-1" d="M76.39,174.28c-.88,0-1.76-.37-2.38-1.09-.89-1.03-2.98-3.45,2.32-22.58.46-1.67,2.2-2.65,3.87-2.19,1.67.46,2.65,2.2,2.19,3.87-2.65,9.54-3.49,15.7-3.27,17.28.73,1.28.48,2.94-.67,3.94-.6.51-1.33.77-2.06.77M131.22,161.85c-.26,0-.52-.03-.78-.1-1.32-.34-4.41-1.13-11.01-19.85-.58-1.64.28-3.43,1.92-4.01,1.64-.58,3.43.28,4.01,1.92,3.29,9.35,6.12,14.88,7.21,16.05,1.33.63,2.08,2.14,1.7,3.62-.37,1.42-1.64,2.36-3.04,2.36ZM30.02,152.93c-1.74,0-3.15-1.41-3.15-3.15,0-1.48,0-4.55,16.51-15.57,1.45-.97,3.4-.57,4.36.87.96,1.44.57,3.4-.87,4.36-8.24,5.5-12.9,9.61-13.77,10.94-.28,1.45-1.56,2.54-3.09,2.54ZM79.28,140.15c-10.68,0-19.94-3.27-26.22-9.65-17.56-16.82-18.4-34.89-16-47.09,4.3-21.83,22.68-43.11,44.69-51.77,1.62-.63,3.44.16,4.08,1.77.63,1.62-.16,3.44-1.78,4.08-19.81,7.79-36.98,27.61-40.82,47.14-3.01,15.27,1.92,29.59,14.24,41.39,10.53,10.7,28.97,8.91,42.74,3.69,16.19-6.14,32.93-19.76,33.8-36.37,0-.05,0-.1,0-.15,1.78-17.84-7.06-25.92-14.79-29.55-14.55-6.86-36.7-3.4-47.4,7.4-4.1,4.13-8.01,11.09-3.36,20.73.01.03.03.06.04.1,4.64,10.52,17.04,10.82,26.58,6.64,8.75-3.83,16.38-12.08,12.45-21.17-.69-1.59.04-3.45,1.64-4.13,1.59-.69,3.45.04,4.13,1.64,5.64,13.04-4.19,24.39-15.71,29.43-12.69,5.55-28.72,3.95-34.84-9.82-4.84-10.09-3.22-19.98,4.58-27.85,12.58-12.69,37.56-16.66,54.55-8.66,13.49,6.36,20.02,19.07,18.37,35.8-1.14,20.72-21.09,35.49-37.85,41.84-8.05,3.05-15.94,4.55-23.17,4.55ZM161.23,127.89c-2.23,0-7.03-1.48-19.17-9.33-1.46-.94-1.88-2.89-.94-4.35.94-1.46,2.89-1.88,4.35-.93,8.32,5.38,13.95,8.02,15.51,8.29,1.45-.32,2.96.42,3.56,1.83.69,1.59-.04,3.44-1.64,4.14-.37.16-.85.36-1.68.36ZM6.09,115.79c-.31,0-.63-.05-.95-.15-1.66-.52-2.58-2.29-2.05-3.95.41-1.3,1.37-4.35,20.46-9.85,1.66-.48,3.41.48,3.89,2.15.48,1.67-.48,3.41-2.15,3.89-9.51,2.74-15.2,5.24-16.44,6.25-.55,1.01-1.62,1.64-2.76,1.64ZM167.8,90.57c-3.17,0-8.53-.7-17.81-3.02-1.69-.42-2.71-2.13-2.29-3.81.42-1.69,2.12-2.71,3.81-2.29,9.6,2.4,15.78,3.08,17.36,2.82,1.27-.77,2.93-.56,3.96.57,1.17,1.29,1.07,3.27-.21,4.44-.52.48-1.41,1.28-4.82,1.28ZM23.06,75.34c-.14,0-.28-.01-.43-.03-9.82-1.33-16.03-1.33-17.56-.9-1.17.9-2.85.88-4-.13-1.3-1.15-1.43-3.13-.29-4.44.9-1.03,3.02-3.43,22.7-.77,1.72.23,2.93,1.82,2.7,3.54-.21,1.58-1.56,2.73-3.11,2.73ZM140.82,52.8c-1.32,0-2.55-.84-2.99-2.16-.54-1.65.35-3.43,2-3.97,9.42-3.1,15.01-5.81,16.2-6.86.66-1.32,2.18-2.03,3.65-1.63,1.68.46,2.66,2.2,2.19,3.87-.39,1.42-1.21,4.38-20.08,10.59-.33.11-.66.16-.98.16ZM41.87,42.51c-.91,0-1.81-.39-2.44-1.15-6.27-7.67-10.82-11.9-12.23-12.64-1.47-.14-2.68-1.3-2.83-2.82-.17-1.73,1.09-3.27,2.82-3.44,1.36-.13,4.54-.45,17.11,14.92,1.1,1.35.9,3.33-.44,4.43-.58.48-1.29.71-1.99.71ZM114.77,31.83c-.82,0-1.65-.32-2.26-.96-1.21-1.25-1.17-3.24.08-4.45,7.13-6.88,10.98-11.75,11.6-13.22.02-1.47,1.08-2.78,2.58-3.05,1.71-.31,3.35.82,3.66,2.53.27,1.46.82,4.48-13.47,18.27-.61.59-1.4.88-2.18.88ZM79,26.09c-.23,0-.47-.03-.7-.08-1.69-.39-2.75-2.07-2.37-3.77,2.21-9.66,2.76-15.85,2.47-17.42-.79-1.24-.62-2.92.49-3.97,1.26-1.2,3.25-1.14,4.45.12.94.99,3.14,3.31-1.28,22.66-.33,1.46-1.63,2.45-3.06,2.45Z"/>
</svg>