<?xml version="1.0" encoding="UTF-8"?>
<svg id="Ebene_1" data-name="Ebene 1" xmlns="http://www.w3.org/2000/svg" version="1.1" viewBox="0 0 180.68 171.14">
  <defs>
    <style>
      .cls-1 {
        fill: #1d1d1b;
      }

      .cls-1, .cls-2 {
        stroke-width: 0px;
      }

      .cls-2 {
        fill: #3192d0;
      }
    </style>
  </defs>
  <rect class="cls-2" x="21.12" y="11.59" width="159.56" height="159.56"/>
  <path class="cls-1" d="M29.65,149.82c-12,0-21.36-4.75-25.6-13.23-.78-1.55-.15-3.44,1.41-4.22,1.55-.78,3.44-.15,4.22,1.41,3.67,7.34,13.05,10.87,25.09,9.44,14.49-1.73,31.22-11.03,34.12-23.62.25-1.08,1.04-1.95,2.1-2.29,1.05-.34,2.21-.1,3.04.62,8.74,7.65,20.2,11.34,29.19,9.4,6.43-1.39,11.22-5.45,14.22-12.06.44-.97,1.34-1.65,2.39-1.81,1.05-.16,2.11.23,2.82,1.02,14.32,16.12,29.99,20.98,50.82,15.78,1.68-.42,3.39.6,3.81,2.29.42,1.69-.6,3.39-2.29,3.81-21.61,5.4-38.88.8-54.01-14.46-3.89,6.1-9.51,10.07-16.45,11.57-9.79,2.11-21.35-.91-31.05-7.94-5.94,13.34-23.18,22.15-37.98,23.92-2.01.24-3.97.36-5.86.36M10.58,93.69c-1.74,0-3.15-1.41-3.15-3.14s1.41-3.15,3.15-3.15c9.68,0,32.19-2.05,32.19-21.03,0-1.31.82-2.49,2.05-2.94,1.23-.46,2.61-.11,3.48.89,22.58,26.06,32,19.33,57.16,1.36,1.3-.93,3.1-.73,4.17.46,6.84,7.6,16.24,11.94,26.45,12.21,11.17.29,22.23-4.2,30.36-12.32,1.23-1.23,3.22-1.23,4.45,0s1.23,3.22,0,4.45c-9.34,9.34-22.08,14.51-34.97,14.17-11.01-.29-21.21-4.62-29.01-12.25-11.72,8.35-21.2,14.77-30.75,15.5-9.06.7-17.64-3.66-28.01-14.39-3.53,12.79-17.02,20.21-37.56,20.21ZM16.47,33.81c-6.1,0-11.41-2.77-15.78-8.24-1.08-1.36-.87-3.34.49-4.42,1.35-1.08,3.34-.86,4.42.49,3.22,4.02,6.85,5.98,11.09,5.88,13.13-.21,28.03-18.73,32.29-24.4.99-1.32,2.83-1.65,4.22-.76l1.98,1.28c15.99,10.3,31.1,20.02,42.66,16.45,6.34-1.96,11.53-7.9,15.85-18.16.41-.96,1.27-1.66,2.29-1.87,1.03-.2,2.09.12,2.83.86,10.35,10.36,30.05,24.42,39.45,21.72,1.01-.29,4.08-1.17,5.47-7.19.39-1.69,2.08-2.75,3.77-2.36,1.69.39,2.75,2.08,2.36,3.77-1.83,7.96-6.38,10.82-9.86,11.82-1.38.4-2.84.58-4.35.58-13.4,0-30.86-14.39-38.01-20.85-4.78,9.62-10.67,15.42-17.93,17.66-14.24,4.41-30.38-5.87-47.48-16.87-6.96,8.81-21.24,24.37-35.43,24.6-.1,0-.21,0-.32,0Z"/>
</svg>